<?xml version="1.0" encoding="iso-8859-1"?>
<!-- Uploaded to: SVG Repo, www.svgrepo.com, Generator: SVG Repo Mixer Tools -->
<svg fill="#000000" height="800px" width="800px" version="1.1" id="Layer_1" xmlns="http://www.w3.org/2000/svg" xmlns:xlink="http://www.w3.org/1999/xlink" 
	 viewBox="0 0 335.602 335.602" xml:space="preserve">
<g>
	<g>
		<g>
			<path d="M220.121,103.145h-2.912c-1.595-8.797-5.242-17.049-10.698-24.198l1.778-1.778c3.516-3.515,3.516-9.213,0.001-12.728
				c-3.516-3.515-9.214-3.515-12.728,0l-2.059,2.059c-7.348-5.092-15.762-8.349-24.675-9.546v-2.515c0-4.971-4.029-9-9-9
				s-9,4.029-9,9v2.913c-8.807,1.595-17.052,5.239-24.199,10.696l-1.777-1.777c-3.515-3.515-9.213-3.515-12.728,0
				c-3.516,3.515-3.516,9.213-0.001,12.728l2.059,2.059c-5.092,7.348-8.348,15.762-9.546,24.675h-2.514c-4.971,0-9,4.029-9,9
				c0,4.971,4.029,9,9,9h2.911c1.595,8.797,5.242,17.049,10.698,24.199l-1.778,1.778c-3.516,3.515-3.516,9.213-0.001,12.728
				c1.758,1.758,4.061,2.636,6.364,2.636c2.303,0,4.606-0.879,6.363-2.636l2.059-2.059c7.349,5.092,15.763,8.349,24.676,9.547v2.515
				c0,4.971,4.029,9,9,9s9-4.029,9-9v-2.917c8.796-1.596,17.05-5.236,24.198-10.691l1.777,1.777
				c1.758,1.758,4.061,2.636,6.364,2.636s4.606-0.879,6.363-2.636c3.516-3.515,3.516-9.213,0.001-12.728l-2.059-2.059
				c5.092-7.349,8.348-15.763,9.546-24.675h2.515c4.971,0,9-4.029,9-9C229.119,107.177,225.092,103.145,220.121,103.145z
				 M188.449,141.285c-7.438,7.299-17.304,11.258-27.695,11.168c-10.422-0.098-20.181-4.248-27.48-11.687
				c-7.3-7.438-11.266-17.274-11.167-27.695c0.098-10.421,4.248-20.181,11.686-27.48c7.349-7.212,17.036-11.169,27.318-11.169
				c0.125,0,0.252,0,0.377,0.001c10.422,0.098,20.181,4.248,27.48,11.687c7.3,7.438,11.266,17.273,11.167,27.695
				C200.037,124.226,195.887,133.986,188.449,141.285z"/>
			<path d="M161.367,87.282c-7.012-0.078-13.581,2.593-18.567,7.487c-4.986,4.894-7.769,11.437-7.835,18.422
				c-0.065,6.987,2.593,13.581,7.487,18.568c4.894,4.987,11.436,7.769,18.422,7.834c0.085,0.001,0.169,0.001,0.254,0.001
				c6.892,0,13.388-2.654,18.313-7.488c4.986-4.893,7.769-11.436,7.835-18.422c0.065-6.987-2.593-13.581-7.487-18.568
				C174.895,90.13,168.353,87.348,161.367,87.282z M166.834,119.26c-1.556,1.526-3.601,2.333-5.791,2.334
				c-2.178-0.021-4.218-0.888-5.744-2.443s-2.355-3.611-2.334-5.79c0.021-2.179,0.888-4.219,2.442-5.745
				c1.536-1.507,3.562-2.335,5.712-2.335c0.026,0,0.053,0,0.079,0c2.178,0.021,4.218,0.888,5.744,2.443
				c1.527,1.555,2.356,3.611,2.334,5.791C169.255,115.694,168.388,117.734,166.834,119.26z"/>
			<path d="M298.003,174.09l-19.933-27.615c-4.541-6.29-5.835-14.456-3.461-21.842c4.941-15.374,5.68-31.473,2.136-46.555
				c-5.117-21.778-17.582-41.555-35.099-55.687C223.489,7.743,201.52,0,178.115,0h-30.597C85.151,0,34.412,50.739,34.412,113.106
				v0.393c0,21.024,6.416,41.541,18.554,59.333c9.99,14.643,21.899,40.063,21.899,78.002c0,2.67,1.186,5.203,3.236,6.913
				l90.873,75.768c1.65,1.375,3.697,2.087,5.766,2.087c1.294,0,2.597-0.279,3.814-0.849c3.163-1.481,5.184-4.658,5.184-8.151
				c0-6.453,2.47-14.812,7.144-24.174c6.302-12.622,20.508-19.625,34.553-17.031l9.773,1.806c0.054,0.01,0.109,0.017,0.163,0.026
				c10.342,1.864,20.897-0.914,28.979-7.641c8.125-6.761,12.784-16.701,12.784-27.27v-8.85c0-1.012-0.171-2.018-0.505-2.973
				l-3.367-9.622l4.567-8.625c0.688-1.298,1.047-2.744,1.047-4.212v-17.339h5.518c6.333,0,12.059-3.502,14.942-9.141
				C302.221,185.917,301.709,179.225,298.003,174.09z M269.877,182.696c-4.971,0-9,4.029-9,9v24.103l-5.361,10.123
				c-1.174,2.215-1.37,4.819-0.542,7.185l4.161,11.89v7.32c0,5.207-2.295,10.104-6.298,13.434
				c-3.841,3.196-8.812,4.561-13.734,3.831l-68.105-25.862c-4.648-1.765-9.845,0.573-11.609,5.219
				c-1.765,4.646,0.572,9.844,5.219,11.608l31.712,12.042c-9.109,4.742-16.769,12.238-21.541,21.798c-0.001,0-0.001,0-0.001,0
				c-2.67,5.349-4.754,10.465-6.244,15.321l-75.713-63.127c-0.869-40.211-13.95-67.722-24.984-83.895
				c-10.09-14.79-15.423-31.799-15.423-49.189v-0.393C52.412,60.665,95.077,18,147.519,18h30.597
				c38.874,0,72.227,26.398,81.106,64.195c2.797,11.899,2.191,24.669-1.749,36.93c-4.117,12.812-1.873,26.974,6.002,37.884
				l18.541,25.687H269.877z"/>
		</g>
	</g>
</g>
</svg>