<svg fill="#ffffff" version="1.1" id="Capa_1" xmlns="http://www.w3.org/2000/svg" xmlns:xlink="http://www.w3.org/1999/xlink" viewBox="0 0 121.806 121.806" xml:space="preserve">
  <g>
    <circle cx="99.306" cy="98.983" r="22.5"></circle>
    <path d="M80.206,13.883v55.4c0,6.5-4.9,11.399-11.4,11.399h-55.3c-6.5,0-11.7-5-11.7-11.399c0-6.3,5.7-11.3,11.8-11.3h27 c0,0-37.2-37.1-37.2-37.2c-2.3-2.3-3.5-5.4-3.4-8.6c0.2-7.6,8.1-13.6,15.5-11.4c1.9,0.5,3.6,1.6,5,2.9l37.2,37.2v-27 c0-6.1,5-11.8,11.3-11.8S80.206,7.383,80.206,13.883z"></path>
  </g>
</svg>


